<svg xmlns="http://www.w3.org/2000/svg" id="icon-trash" viewBox="0 0 32 32">
<path d="M20.033 8c0 0.718 0.582 1.3 1.3 1.3s1.3-0.582 1.3-1.3h-2.6zM9.367 8c0 0.718 0.582 1.3 1.3 1.3s1.3-0.582 1.3-1.3h-2.6zM19.877 2.957v0zM21.043 4.123v0zM12.123 2.957v0zM10.957 4.123v0zM14.633 15.333c0-0.718-0.582-1.3-1.3-1.3s-1.3 0.582-1.3 1.3h2.6zM12.033 22c0 0.718 0.582 1.3 1.3 1.3s1.3-0.582 1.3-1.3h-2.6zM19.967 15.333c0-0.718-0.582-1.3-1.3-1.3s-1.3 0.582-1.3 1.3h2.6zM17.367 22c0 0.718 0.582 1.3 1.3 1.3s1.3-0.582 1.3-1.3h-2.6zM4 6.7c-0.718 0-1.3 0.582-1.3 1.3s0.582 1.3 1.3 1.3v-2.6zM28 9.3c0.718 0 1.3-0.582 1.3-1.3s-0.582-1.3-1.3-1.3v2.6zM26.633 8c0-0.718-0.582-1.3-1.3-1.3s-1.3 0.582-1.3 1.3h2.6zM7.967 8c0-0.718-0.582-1.3-1.3-1.3s-1.3 0.582-1.3 1.3h2.6zM8.851 28.897v0zM7.103 27.149v0zM24.897 27.149v0zM23.149 28.897v0zM14.933 3.967h2.133v-2.6h-2.133v2.6zM20.033 6.933v1.067h2.6v-1.067h-2.6zM11.967 8v-1.067h-2.6v1.067h2.6zM17.067 3.967c0.768 0 1.266 0.001 1.646 0.032 0.364 0.030 0.503 0.081 0.575 0.117l1.18-2.317c-0.499-0.254-1.018-0.349-1.544-0.392-0.51-0.042-1.132-0.041-1.857-0.041v2.6zM22.633 6.933c0-0.725 0.001-1.347-0.041-1.857-0.043-0.525-0.137-1.044-0.392-1.543l-2.317 1.18c0.036 0.071 0.087 0.211 0.117 0.575 0.031 0.379 0.032 0.877 0.032 1.646h2.6zM19.287 4.116c0.257 0.131 0.466 0.34 0.597 0.597l2.317-1.18c-0.38-0.746-0.987-1.353-1.733-1.734l-1.18 2.317zM14.933 1.367c-0.725 0-1.347-0.001-1.857 0.041-0.525 0.043-1.044 0.137-1.543 0.392l1.18 2.317c0.071-0.036 0.211-0.087 0.575-0.117 0.379-0.031 0.877-0.032 1.646-0.032v-2.6zM11.967 6.933c0-0.768 0.001-1.266 0.032-1.646 0.030-0.364 0.081-0.503 0.117-0.575l-2.317-1.18c-0.254 0.499-0.349 1.018-0.392 1.543-0.042 0.51-0.041 1.132-0.041 1.857h2.6zM11.533 1.799c-0.746 0.38-1.353 0.987-1.733 1.734l2.317 1.18c0.131-0.257 0.34-0.466 0.597-0.597l-1.18-2.317zM12.033 15.333v6.667h2.6v-6.667h-2.6zM17.367 15.333v6.667h2.6v-6.667h-2.6zM4 9.3h24v-2.6h-24v2.6zM24.033 8v14.933h2.6v-14.933h-2.6zM18.933 28.033h-5.867v2.6h5.867v-2.6zM7.967 22.933v-14.933h-2.6v14.933h2.6zM13.067 28.033c-1.142 0-1.92-0.001-2.521-0.050-0.587-0.048-0.89-0.135-1.104-0.244l-1.18 2.317c0.642 0.327 1.326 0.458 2.073 0.519 0.732 0.060 1.634 0.059 2.733 0.059v-2.6zM5.367 22.933c0 1.099-0.001 2.001 0.059 2.733 0.061 0.747 0.192 1.431 0.519 2.073l2.317-1.18c-0.109-0.214-0.196-0.518-0.244-1.104-0.049-0.602-0.050-1.38-0.050-2.521h-2.6zM9.441 27.739c-0.508-0.259-0.921-0.672-1.18-1.18l-2.317 1.18c0.508 0.997 1.319 1.808 2.316 2.316l1.18-2.317zM24.033 22.933c0 1.142-0.001 1.92-0.050 2.521-0.048 0.587-0.135 0.89-0.244 1.104l2.317 1.18c0.327-0.642 0.458-1.326 0.519-2.073 0.060-0.732 0.059-1.634 0.059-2.733h-2.6zM18.933 30.633c1.099 0 2.001 0.001 2.733-0.059 0.747-0.061 1.431-0.192 2.073-0.519l-1.18-2.317c-0.214 0.109-0.518 0.196-1.104 0.244-0.602 0.049-1.38 0.050-2.521 0.050v2.6zM23.739 26.559c-0.259 0.508-0.672 0.921-1.18 1.18l1.18 2.317c0.997-0.508 1.808-1.319 2.316-2.316l-2.317-1.18z"></path>
</svg>