<svg xmlns="http://www.w3.org/2000/svg" width="20" height="20" viewBox="0 0 20 20" fill="none">
  <path d="M5.12532 10.918C6.09146 10.5352 6.8662 10.6354 7.44954 11.2188C8.03288 11.8021 8.20604 12.7318 7.96906 14.0078C7.78678 14.9557 7.38574 15.6849 6.76594 16.1953C6.16438 16.6875 5.46256 16.9336 4.66048 16.9336C3.56672 16.9336 2.81022 16.5143 2.39094 15.6758C1.97167 14.819 1.88964 13.6706 2.14485 12.2305C2.29068 11.4466 2.52766 10.6537 2.85578 9.85155C3.18392 9.04947 3.62142 8.22917 4.16828 7.39063C4.71516 6.55209 5.4261 5.82291 6.3011 5.20313C7.1761 4.58333 8.14224 4.18229 9.19954 4L8.9261 6.89843C8.03288 7.08073 7.2399 7.54557 6.5472 8.29297C5.85448 9.02213 5.38052 9.89713 5.12532 10.918ZM13.3558 10.918C14.3219 10.5352 15.0967 10.6354 15.68 11.2188C16.2633 11.8021 16.4365 12.7318 16.1995 14.0078C16.0172 14.9557 15.6162 15.6849 14.9964 16.1953C14.3949 16.6875 13.693 16.9336 12.8909 16.9336C11.7972 16.9336 11.0407 16.5143 10.6214 15.6758C10.2021 14.819 10.1201 13.6706 10.3753 12.2305C10.5212 11.4466 10.7581 10.6537 11.0863 9.85155C11.4144 9.04947 11.8519 8.22917 12.3988 7.39063C12.9456 6.55209 13.6566 5.82291 14.5316 5.20313C15.4066 4.58333 16.3727 4.18229 17.43 4L17.1566 6.89843C16.2633 7.08073 15.4704 7.54557 14.7777 8.29297C14.085 9.02213 13.611 9.89713 13.3558 10.918Z" fill="#F4F4F4"/>
</svg>