<svg xmlns="http://www.w3.org/2000/svg" id="icon-running-stick" viewBox="0 0 32 32">
<path fill="#fff" style="fill: var(--color1, #fff)" d="M29.648 9.451c-0.219-0.26-0.545-0.424-0.909-0.424-0.29 0-0.556 0.104-0.762 0.277l0.002-0.002-3.28 2.757-1.51-3.739c-0.056-0.14-0.134-0.261-0.229-0.364l0.001 0.001c-0.321-0.716-0.875-1.281-1.563-1.608l-0.019-0.008c-0.32-0.146-0.651-0.224-0.982-0.262-0.072-0.038-0.139-0.088-0.222-0.114l-5.776-1.61c-0.093-0.026-0.199-0.041-0.31-0.041-0.223 0-0.432 0.062-0.611 0.169l0.005-0.003c-0.33 0.108-0.59 0.352-0.717 0.664l-0.003 0.008-2.174 5.592c-0.050 0.127-0.079 0.273-0.079 0.427 0 0.501 0.31 0.929 0.748 1.103l0.008 0.003c0.126 0.050 0.272 0.079 0.425 0.079 0.5 0 0.928-0.31 1.103-0.748l0.003-0.008 1.837-4.723 2.63 0.731c-0.064 0.104-0.133 0.202-0.186 0.312l-3.371 7.312c-0.048 0.107-0.075 0.216-0.11 0.326l-4.098 6.87-6.859 2.294c-0.42 0.323-0.687 0.826-0.687 1.391 0 0.968 0.784 1.752 1.752 1.752 0.381 0 0.733-0.122 1.021-0.328l-0.005 0.004 7.019-2.416c0.216-0.157 0.371-0.362 0.49-0.581 0.088-0.094 0.189-0.168 0.256-0.285l2.443-4.096 4.336 3.696-4.64 5.229c-0.273 0.307-0.439 0.714-0.439 1.16 0 0.967 0.784 1.751 1.751 1.751 0.521 0 0.99-0.228 1.31-0.589l0.002-0.002 5.79-6.523c0.179-0.202 0.288-0.432 0.36-0.675 0.043-0.133 0.043-0.269 0.053-0.406 0-0.069 0.027-0.131 0.021-0.195-0.009-0.509-0.239-0.963-0.598-1.272l-0.002-0.002-3.992-3.403c0.288-0.274 0.533-0.6 0.709-0.982l2.586-5.6 0.829 2.208c0.031 0.211 0.116 0.398 0.242 0.551l-0.002-0.002c0.121 0.138 0.273 0.247 0.445 0.314l0.008 0.003c0.018 0.008 0.038 0.010 0.059 0.016 0.096 0.040 0.208 0.069 0.325 0.080l0.005 0c0.024 0.002 0.052 0.003 0.081 0.003 0.116 0 0.227-0.017 0.332-0.050l-0.008 0.002h0.005c0.037-0.010 0.074-0.003 0.11-0.019 0.186-0.076 0.343-0.192 0.464-0.337l0.002-0.002 4.71-3.997c0.501-0.422 0.288-1.168-0.133-1.667zM23.69 6.602c1.823 0 3.301-1.478 3.301-3.301s-1.478-3.301-3.301-3.301v0c-1.823 0-3.301 1.478-3.301 3.301s1.478 3.301 3.301 3.301v0z"></path>
</svg>