<svg aria-hidden="true" style="position: absolute; width: 0; height: 0; overflow: hidden;" version="1.1" xmlns="http://www.w3.org/2000/svg" xmlns:xlink="http://www.w3.org/1999/xlink">
<defs>
<symbol id="icon-running-stick" viewBox="0 0 32 32">
<path d="M29.648 9.451c-0.219-0.26-0.545-0.424-0.909-0.424-0.29 0-0.556 0.104-0.762 0.277l0.002-0.002-3.28 2.757-1.51-3.739c-0.056-0.14-0.134-0.261-0.229-0.364l0.001 0.001c-0.321-0.716-0.875-1.281-1.563-1.608l-0.019-0.008c-0.32-0.146-0.651-0.224-0.982-0.262-0.072-0.038-0.139-0.088-0.222-0.114l-5.776-1.61c-0.093-0.026-0.199-0.041-0.31-0.041-0.223 0-0.432 0.062-0.611 0.169l0.005-0.003c-0.33 0.108-0.59 0.352-0.717 0.664l-0.003 0.008-2.174 5.592c-0.050 0.127-0.079 0.273-0.079 0.427 0 0.501 0.31 0.929 0.748 1.103l0.008 0.003c0.126 0.050 0.272 0.079 0.425 0.079 0.5 0 0.928-0.31 1.103-0.748l0.003-0.008 1.837-4.723 2.63 0.731c-0.064 0.104-0.133 0.202-0.186 0.312l-3.371 7.312c-0.048 0.107-0.075 0.216-0.11 0.326l-4.098 6.87-6.859 2.294c-0.42 0.323-0.687 0.826-0.687 1.391 0 0.968 0.784 1.752 1.752 1.752 0.381 0 0.733-0.122 1.021-0.328l-0.005 0.004 7.019-2.416c0.216-0.157 0.371-0.362 0.49-0.581 0.088-0.094 0.189-0.168 0.256-0.285l2.443-4.096 4.336 3.696-4.64 5.229c-0.273 0.307-0.439 0.714-0.439 1.16 0 0.967 0.784 1.751 1.751 1.751 0.521 0 0.99-0.228 1.31-0.589l0.002-0.002 5.79-6.523c0.179-0.202 0.288-0.432 0.36-0.675 0.043-0.133 0.043-0.269 0.053-0.406 0-0.069 0.027-0.131 0.021-0.195-0.009-0.509-0.239-0.963-0.598-1.272l-0.002-0.002-3.992-3.403c0.288-0.274 0.533-0.6 0.709-0.982l2.586-5.6 0.829 2.208c0.031 0.211 0.116 0.398 0.242 0.551l-0.002-0.002c0.121 0.138 0.273 0.247 0.445 0.314l0.008 0.003c0.018 0.008 0.038 0.010 0.059 0.016 0.096 0.040 0.208 0.069 0.325 0.080l0.005 0c0.024 0.002 0.052 0.003 0.081 0.003 0.116 0 0.227-0.017 0.332-0.050l-0.008 0.002h0.005c0.037-0.010 0.074-0.003 0.11-0.019 0.186-0.076 0.343-0.192 0.464-0.337l0.002-0.002 4.71-3.997c0.501-0.422 0.288-1.168-0.133-1.667zM23.69 6.602c1.823 0 3.301-1.478 3.301-3.301s-1.478-3.301-3.301-3.301v0c-1.823 0-3.301 1.478-3.301 3.301s1.478 3.301 3.301 3.301v0z"></path>
</symbol>
<symbol id="icon-commas" viewBox="0 0 32 32">
<path d="M8.2 17.468c1.547-0.612 2.787-0.452 3.72 0.481s1.211 2.421 0.831 4.463c-0.291 1.517-0.933 2.684-1.924 3.5-0.963 0.787-2.087 1.181-3.369 1.181-1.751 0-2.96-0.671-3.631-2.013-0.672-1.369-0.803-3.207-0.395-5.512 0.233-1.253 0.613-2.523 1.137-3.805 0.525-1.284 1.227-2.596 2.1-3.937 0.876-1.343 2.013-2.509 3.413-3.5 1.309-0.943 2.874-1.62 4.57-1.916l0.067-0.010-0.437 4.637c-1.429 0.292-2.699 1.035-3.807 2.231-1.108 1.167-1.867 2.567-2.275 4.2zM21.369 17.468c1.547-0.612 2.787-0.452 3.72 0.481s1.209 2.421 0.831 4.463c-0.292 1.517-0.933 2.684-1.925 3.5-0.963 0.787-2.085 1.181-3.368 1.181-1.751 0-2.96-0.671-3.632-2.013-0.671-1.369-0.801-3.207-0.393-5.512 0.233-1.253 0.613-2.523 1.137-3.805 0.525-1.284 1.225-2.596 2.1-3.937 0.875-1.343 2.013-2.509 3.413-3.5 1.309-0.943 2.873-1.619 4.567-1.916l0.067-0.010-0.437 4.637c-1.429 0.292-2.697 1.035-3.805 2.231-1.109 1.167-1.867 2.567-2.276 4.2z"></path>
</symbol>
<symbol id="icon-heart" viewBox="0 0 36 32">
<path d="M32.255 4.013v0zM26.041 1.438v0zM19.827 4.013v0zM18.133 5.706l-1.017 1.017c0.561 0.561 1.472 0.561 2.033 0l-1.017-1.017zM16.44 4.013v0zM4.012 16.441v0zM5.705 18.134v0zM18.133 30.562l-1.017 1.017c0.27 0.27 0.635 0.421 1.017 0.421s0.747-0.151 1.017-0.421l-1.017-1.017zM32.255 16.441v0zM33.272 2.996c-0.949-0.95-2.077-1.703-3.317-2.217l-1.101 2.656c0.892 0.369 1.702 0.911 2.384 1.594l2.034-2.033zM29.954 0.779c-1.241-0.514-2.571-0.779-3.914-0.779v2.875c0.965 0 1.921 0.19 2.813 0.56l1.101-2.656zM26.041 0c-1.343 0-2.673 0.265-3.914 0.779l1.101 2.656c0.892-0.369 1.848-0.56 2.813-0.56v-2.875zM22.127 0.779c-1.241 0.514-2.368 1.268-3.317 2.217l2.034 2.033c0.682-0.683 1.493-1.224 2.384-1.594l-1.101-2.656zM18.81 2.996l-1.693 1.693 2.033 2.033 1.693-1.693-2.033-2.033zM19.15 4.689l-1.693-1.693-2.033 2.033 1.693 1.693 2.033-2.033zM17.457 2.996c-1.918-1.918-4.519-2.995-7.231-2.995v2.875c1.949 0 3.819 0.774 5.198 2.153l2.033-2.033zM10.226 0.001c-2.712 0-5.313 1.077-7.231 2.995l2.033 2.033c1.378-1.378 3.248-2.153 5.198-2.153v-2.875zM2.995 2.996c-1.918 1.918-2.995 4.519-2.995 7.231h2.875c0-1.949 0.774-3.819 2.153-5.198l-2.033-2.033zM0 10.227c0 2.712 1.077 5.313 2.995 7.231l2.033-2.033c-1.378-1.378-2.153-3.248-2.153-5.198h-2.875zM2.995 17.457l1.693 1.693 2.033-2.033-1.693-1.693-2.033 2.033zM4.688 19.151l12.428 12.428 2.033-2.033-12.428-12.428-2.033 2.033zM19.15 31.579l12.428-12.428-2.033-2.033-12.428 12.428 2.033 2.033zM31.578 19.151l1.693-1.693-2.033-2.033-1.693 1.693 2.033 2.033zM33.271 17.458c0.95-0.949 1.703-2.077 2.217-3.317l-2.656-1.101c-0.37 0.892-0.911 1.702-1.594 2.384l2.033 2.034zM35.489 14.14c0.514-1.241 0.779-2.571 0.779-3.914h-2.875c0 0.965-0.19 1.921-0.56 2.813l2.656 1.101zM36.267 10.227c0-1.343-0.265-2.673-0.779-3.914l-2.656 1.101c0.37 0.892 0.56 1.848 0.56 2.813h2.875zM35.489 6.313c-0.514-1.241-1.268-2.368-2.217-3.317l-2.033 2.034c0.683 0.682 1.224 1.493 1.594 2.384l2.656-1.101z"></path>
</symbol>
<symbol id="icon-trash" viewBox="0 0 32 32">
<path d="M20.033 8c0 0.718 0.582 1.3 1.3 1.3s1.3-0.582 1.3-1.3h-2.6zM9.367 8c0 0.718 0.582 1.3 1.3 1.3s1.3-0.582 1.3-1.3h-2.6zM19.877 2.957v0zM21.043 4.123v0zM12.123 2.957v0zM10.957 4.123v0zM14.633 15.333c0-0.718-0.582-1.3-1.3-1.3s-1.3 0.582-1.3 1.3h2.6zM12.033 22c0 0.718 0.582 1.3 1.3 1.3s1.3-0.582 1.3-1.3h-2.6zM19.967 15.333c0-0.718-0.582-1.3-1.3-1.3s-1.3 0.582-1.3 1.3h2.6zM17.367 22c0 0.718 0.582 1.3 1.3 1.3s1.3-0.582 1.3-1.3h-2.6zM4 6.7c-0.718 0-1.3 0.582-1.3 1.3s0.582 1.3 1.3 1.3v-2.6zM28 9.3c0.718 0 1.3-0.582 1.3-1.3s-0.582-1.3-1.3-1.3v2.6zM26.633 8c0-0.718-0.582-1.3-1.3-1.3s-1.3 0.582-1.3 1.3h2.6zM7.967 8c0-0.718-0.582-1.3-1.3-1.3s-1.3 0.582-1.3 1.3h2.6zM8.851 28.897v0zM7.103 27.149v0zM24.897 27.149v0zM23.149 28.897v0zM14.933 3.967h2.133v-2.6h-2.133v2.6zM20.033 6.933v1.067h2.6v-1.067h-2.6zM11.967 8v-1.067h-2.6v1.067h2.6zM17.067 3.967c0.768 0 1.266 0.001 1.646 0.032 0.364 0.030 0.503 0.081 0.575 0.117l1.18-2.317c-0.499-0.254-1.018-0.349-1.544-0.392-0.51-0.042-1.132-0.041-1.857-0.041v2.6zM22.633 6.933c0-0.725 0.001-1.347-0.041-1.857-0.043-0.525-0.137-1.044-0.392-1.543l-2.317 1.18c0.036 0.071 0.087 0.211 0.117 0.575 0.031 0.379 0.032 0.877 0.032 1.646h2.6zM19.287 4.116c0.257 0.131 0.466 0.34 0.597 0.597l2.317-1.18c-0.38-0.746-0.987-1.353-1.733-1.734l-1.18 2.317zM14.933 1.367c-0.725 0-1.347-0.001-1.857 0.041-0.525 0.043-1.044 0.137-1.543 0.392l1.18 2.317c0.071-0.036 0.211-0.087 0.575-0.117 0.379-0.031 0.877-0.032 1.646-0.032v-2.6zM11.967 6.933c0-0.768 0.001-1.266 0.032-1.646 0.030-0.364 0.081-0.503 0.117-0.575l-2.317-1.18c-0.254 0.499-0.349 1.018-0.392 1.543-0.042 0.51-0.041 1.132-0.041 1.857h2.6zM11.533 1.799c-0.746 0.38-1.353 0.987-1.733 1.734l2.317 1.18c0.131-0.257 0.34-0.466 0.597-0.597l-1.18-2.317zM12.033 15.333v6.667h2.6v-6.667h-2.6zM17.367 15.333v6.667h2.6v-6.667h-2.6zM4 9.3h24v-2.6h-24v2.6zM24.033 8v14.933h2.6v-14.933h-2.6zM18.933 28.033h-5.867v2.6h5.867v-2.6zM7.967 22.933v-14.933h-2.6v14.933h2.6zM13.067 28.033c-1.142 0-1.92-0.001-2.521-0.050-0.587-0.048-0.89-0.135-1.104-0.244l-1.18 2.317c0.642 0.327 1.326 0.458 2.073 0.519 0.732 0.060 1.634 0.059 2.733 0.059v-2.6zM5.367 22.933c0 1.099-0.001 2.001 0.059 2.733 0.061 0.747 0.192 1.431 0.519 2.073l2.317-1.18c-0.109-0.214-0.196-0.518-0.244-1.104-0.049-0.602-0.050-1.38-0.050-2.521h-2.6zM9.441 27.739c-0.508-0.259-0.921-0.672-1.18-1.18l-2.317 1.18c0.508 0.997 1.319 1.808 2.316 2.316l1.18-2.317zM24.033 22.933c0 1.142-0.001 1.92-0.050 2.521-0.048 0.587-0.135 0.89-0.244 1.104l2.317 1.18c0.327-0.642 0.458-1.326 0.519-2.073 0.060-0.732 0.059-1.634 0.059-2.733h-2.6zM18.933 30.633c1.099 0 2.001 0.001 2.733-0.059 0.747-0.061 1.431-0.192 2.073-0.519l-1.18-2.317c-0.214 0.109-0.518 0.196-1.104 0.244-0.602 0.049-1.38 0.050-2.521 0.050v2.6zM23.739 26.559c-0.259 0.508-0.672 0.921-1.18 1.18l1.18 2.317c0.997-0.508 1.808-1.319 2.316-2.316l-2.317-1.18z"></path>
</symbol>
<symbol id="icon-search" viewBox="0 0 32 32">
<path d="M24 14.667c0 5.155-4.179 9.333-9.333 9.333v2.667c6.627 0 12-5.373 12-12h-2.667zM14.667 24c-5.155 0-9.333-4.179-9.333-9.333h-2.667c0 6.627 5.373 12 12 12v-2.667zM5.333 14.667c0-5.155 4.179-9.333 9.333-9.333v-2.667c-6.627 0-12 5.373-12 12h2.667zM14.667 5.333c5.155 0 9.333 4.179 9.333 9.333h2.667c0-6.627-5.373-12-12-12v2.667z"></path>
<path d="M27.057 28.943c0.521 0.521 1.365 0.521 1.886 0s0.521-1.365 0-1.886l-1.886 1.886zM23.142 21.257c-0.521-0.521-1.365-0.521-1.886 0s-0.521 1.365 0 1.886l1.886-1.886zM28.942 27.057l-5.8-5.8-1.886 1.886 5.8 5.8 1.886-1.886z"></path>
</symbol>
<symbol id="icon-x" viewBox="0 0 32 32">
<path d="M24.707 8.707c0.391-0.391 0.391-1.024 0-1.414s-1.024-0.391-1.414 0l1.414 1.414zM7.293 23.293c-0.391 0.391-0.391 1.024 0 1.414s1.024 0.391 1.414 0l-1.414-1.414zM23.293 7.293l-16 16 1.414 1.414 16-16-1.414-1.414z"></path>
<path d="M8.707 7.293c-0.391-0.391-1.024-0.391-1.414 0s-0.391 1.024 0 1.414l1.414-1.414zM23.293 24.707c0.391 0.391 1.024 0.391 1.414 0s0.391-1.024 0-1.414l-1.414 1.414zM7.293 8.707l16 16 1.414-1.414-16-16-1.414 1.414z"></path>
</symbol>
<symbol id="icon-arrow" viewBox="0 0 32 32">
<path stroke-linejoin="miter" stroke-linecap="butt" stroke-miterlimit="4" stroke-width="0.48" d="M17.037 7.986v16.338h-1.741v-16.336l-8.168 8.168-1.23-1.229 10.269-10.267 10.266 10.267-1.229 1.229-8.168-8.17z"></path>
</symbol>
<symbol id="icon-star" viewBox="0 0 32 32">
<path d="M13.826 3.262c0.686-2.105 3.664-2.105 4.347 0l1.931 5.943c0.306 0.925 1.163 1.581 2.174 1.582h6.251c2.215 0 3.134 2.834 1.344 4.135l-5.058 3.673c-0.573 0.42-0.942 1.092-0.942 1.849 0 0.253 0.041 0.496 0.117 0.723l-0.005-0.016 1.931 5.945c0.686 2.105-1.726 3.858-3.518 2.555l-5.056-3.673c-0.372-0.273-0.839-0.437-1.344-0.437s-0.972 0.164-1.35 0.441l0.006-0.004-5.056 3.673c-1.792 1.303-4.201-0.45-3.518-2.555l1.931-5.943c0.071-0.212 0.113-0.455 0.113-0.708 0-0.757-0.368-1.429-0.936-1.845l-0.006-0.004-5.058-3.673c-1.79-1.303-0.869-4.137 1.344-4.137h6.251c1.008-0.001 1.864-0.654 2.167-1.561l0.005-0.016 1.934-5.943z"></path>
</symbol>
<symbol id="icon-youtube" viewBox="0 0 32 32">
<path d="M24.24 6c-1.36-0.080-4.16-0.16-8.4-0.16h-0.56c-4.080 0-6.8 0.080-8.16 0.24-1.84 0.16-3.12 0.64-3.84 1.28-0.64 0.56-1.12 1.6-1.28 2.96-0.080 0.88-0.16 2.72-0.16 5.52v0.4c0 2.64 0.080 4.48 0.24 5.36 0.24 1.28 0.64 2.24 1.44 2.8 0.8 0.64 2.16 1.040 4.080 1.2 1.36 0.080 4.16 0.16 8.4 0.16h0.56c4.080 0 6.8-0.080 8.16-0.24 1.84-0.16 3.12-0.64 3.84-1.28 0.64-0.56 1.12-1.6 1.28-2.96 0.080-0.88 0.16-2.72 0.16-5.52v-0.4c0-2.64-0.080-4.48-0.24-5.36-0.24-1.28-0.64-2.24-1.44-2.8-0.8-0.64-2.16-1.040-4.080-1.2zM21.12 15.84l-8.8 5.28v-10.56l8.8 5.28z"></path>
</symbol>
<symbol id="icon-instagram" viewBox="0 0 32 32">
<path d="M28.718 10.757c-0.016-1.134-0.233-2.213-0.617-3.208l0.021 0.063c-0.682-1.722-2.021-3.059-3.7-3.722l-0.044-0.015c-0.921-0.356-1.985-0.573-3.097-0.596l-0.010-0c-1.367-0.061-1.801-0.078-5.271-0.078-3.472 0-3.917 0-5.274 0.078-1.063 0.023-2.113 0.223-3.106 0.597-1.724 0.678-3.064 2.015-3.73 3.693l-0.015 0.044c-0.357 0.918-0.574 1.981-0.596 3.091l-0 0.009c-0.061 1.367-0.080 1.8-0.080 5.265 0 3.466 0 3.909 0.080 5.265 0.023 1.063 0.223 2.11 0.597 3.104 0.682 1.721 2.021 3.058 3.7 3.721l0.044 0.015c0.917 0.37 1.979 0.601 3.091 0.638l0.016 0c1.369 0.061 1.802 0.080 5.274 0.080 3.471 0 3.917 0 5.274-0.080 1.122-0.023 2.187-0.239 3.172-0.616l-0.064 0.022c1.722-0.68 3.061-2.016 3.727-3.693l0.016-0.044c0.374-0.994 0.574-2.041 0.595-3.104 0.062-1.366 0.080-1.799 0.080-5.266-0.003-3.465-0.003-3.905-0.082-5.263zM15.989 22.531c-0.002 0-0.004 0-0.007 0-3.624 0-6.563-2.937-6.565-6.561v-0c0.003-3.624 2.941-6.561 6.566-6.561 0.002 0 0.004 0 0.006 0h-0c3.629 0 6.571 2.937 6.571 6.561-0.004 3.624-2.942 6.56-6.567 6.56-0.002 0-0.003 0-0.005 0h0zM22.823 10.696c-0.845 0-1.53-0.685-1.53-1.53s0.685-1.53 1.53-1.53v0c0.012-0 0.027-0.001 0.042-0.001 0.845 0 1.53 0.685 1.53 1.53s-0.685 1.53-1.53 1.53c-0.015 0-0.029-0-0.044-0.001l0.002 0z"></path>
<path d="M15.992 19.976c2.211 0 4.004-1.793 4.004-4.004s-1.793-4.004-4.004-4.004v0c-2.211 0-4.004 1.793-4.004 4.004s1.793 4.004 4.004 4.004v0z"></path>
</symbol>
<symbol id="icon-facebook" viewBox="0 0 32 32">
<path d="M19.52 4.64h0.96v3.6h-1.2c-0.48 0-0.96 0-1.2 0.24s-0.24 0.48-0.24 1.040v1.28h2.64v3.040h-2.64v13.2h-4.080v-13.28h-2.16v-3.040h2.16v-1.040c0-1.76 0.24-3.040 0.72-3.6 0.72-1.040 2.16-1.52 4.32-1.52 0.24 0.080 0.48 0.080 0.72 0.080z"></path>
</symbol>
<symbol id="burger" viewBox="0 0 32 32">
<path stroke-linejoin="round" stroke-linecap="round" stroke-miterlimit="4" stroke-width="2" d="M28 13.333h-24"></path>
<path stroke-linejoin="round" stroke-linecap="round" stroke-miterlimit="4" stroke-width="2" d="M28 8h-24"></path>
<path stroke-linejoin="round" stroke-linecap="round" stroke-miterlimit="4" stroke-width="2" d="M28 18.667h-24"></path>
<path stroke-linejoin="round" stroke-linecap="round" stroke-miterlimit="4" stroke-width="2" d="M28 24h-24"></path>
</symbol>
Diana:
<symbol id="big-star" viewBox="0 0 38 32">
<path d="M17.303 5.512c-0.050 1.444-0.13 3.821-0.183 5.288-0.050 1.467-0.091 2.735-0.091 2.815 0 0.084-0.011 0.137-0.023 0.126-0.027-0.023-0.164-0.343-0.606-1.379-0.133-0.316-0.45-1.059-0.705-1.657-0.259-0.598-0.518-1.208-0.579-1.352-0.065-0.149-0.61-1.425-1.215-2.842-0.602-1.417-1.128-2.651-1.162-2.743s-0.080-0.187-0.099-0.206c-0.019-0.023 0.072 0.263 0.198 0.629 0.13 0.366 0.316 0.907 0.419 1.2 0.099 0.293 0.297 0.857 0.438 1.257 0.491 1.394 0.789 2.248 0.819 2.343 0.015 0.053 0.156 0.446 0.305 0.876 0.152 0.43 0.347 0.994 0.438 1.257 0.263 0.762 0.96 2.754 0.99 2.827 0.053 0.133-0.050 0.065-0.29-0.19-0.225-0.24-2.091-2.156-3.882-3.989-0.43-0.438-1.116-1.143-1.524-1.562-1.242-1.269-2.076-2.103-1.939-1.935 0.072 0.084 0.423 0.499 0.777 0.914 0.358 0.419 0.724 0.85 0.819 0.964 0.095 0.11 0.225 0.263 0.29 0.339s0.389 0.453 0.72 0.842c1.341 1.577 2.754 3.234 3.585 4.206 0.488 0.568 0.88 1.036 0.872 1.044-0.004 0.004-0.4-0.168-0.88-0.385-0.48-0.221-0.956-0.438-1.063-0.484-0.103-0.046-0.301-0.137-0.438-0.198-0.137-0.065-0.343-0.16-0.457-0.21-0.114-0.053-0.312-0.145-0.438-0.202s-0.4-0.183-0.61-0.278c-0.21-0.095-0.705-0.32-1.105-0.503-0.396-0.183-0.903-0.415-1.124-0.514s-1.12-0.51-2-0.914c-1.874-0.857-2-0.914-2-0.895 0 0.008 0.168 0.103 0.37 0.213 0.373 0.198 2.51 1.352 2.907 1.566 0.114 0.065 0.709 0.385 1.314 0.716 0.61 0.328 1.448 0.785 1.867 1.010s0.857 0.461 0.971 0.522c0.114 0.065 0.45 0.244 0.743 0.4 0.293 0.16 0.552 0.301 0.571 0.316 0.023 0.015 0.244 0.133 0.495 0.267 0.251 0.13 0.476 0.255 0.495 0.274 0.027 0.027-0.069 0.030-0.267 0.015-0.168-0.015-1.204-0.076-2.305-0.137-1.101-0.065-2.419-0.141-2.933-0.171-2.998-0.179-5.539-0.324-5.57-0.316-0.019 0.008 0.545 0.084 1.253 0.175 1.33 0.164 5.558 0.701 8.202 1.036 0.827 0.107 1.524 0.198 1.543 0.206 0.023 0.008-0.423 0.16-0.99 0.343-0.564 0.183-1.284 0.415-1.6 0.518-0.312 0.099-0.983 0.316-1.486 0.476s-0.983 0.312-1.067 0.343c-0.156 0.053-1.794 0.579-2.381 0.766-0.179 0.053-0.469 0.149-0.648 0.206-0.179 0.061-0.762 0.248-1.295 0.419s-1.006 0.324-1.048 0.347l-0.076 0.034 0.076-0.019c0.042-0.008 2.084-0.514 4.533-1.124 5.15-1.28 6.137-1.524 6.194-1.524 0.023 0-0.114 0.126-0.301 0.274-0.19 0.152-0.503 0.408-0.697 0.568-0.198 0.16-0.853 0.693-1.463 1.185-1.962 1.585-2.59 2.095-2.667 2.16-0.042 0.034-0.51 0.411-1.044 0.842-0.857 0.69-1.547 1.253-1.775 1.444-0.042 0.034-0.183 0.145-0.312 0.244-0.21 0.16-0.309 0.255-0.27 0.255 0.008 0 0.225-0.149 0.48-0.335 0.259-0.183 0.579-0.408 0.716-0.503s0.377-0.267 0.541-0.385c0.16-0.114 0.43-0.305 0.598-0.419 0.168-0.118 0.743-0.518 1.276-0.895s1.082-0.762 1.219-0.857c0.59-0.415 1.977-1.394 2.629-1.848 0.389-0.274 0.8-0.564 0.914-0.644 0.114-0.084 0.301-0.213 0.415-0.293s0.213-0.137 0.225-0.13c0.008 0.011-0.122 0.255-0.29 0.545s-0.811 1.417-1.436 2.507c-0.625 1.090-1.166 2.030-1.2 2.095-0.038 0.061-0.434 0.758-0.884 1.543s-0.907 1.581-1.017 1.768c-0.107 0.187-0.194 0.343-0.194 0.347 0 0.008-0.065 0.122-0.145 0.251-0.232 0.389-0.362 0.629-0.324 0.587 0.023-0.023 1.398-2.076 3.059-4.571s3.048-4.564 3.086-4.602c0.061-0.069 0.065-0.061 0.034 0.133-0.019 0.11-0.145 0.937-0.282 1.84-0.137 0.899-0.263 1.741-0.286 1.867-0.019 0.126-0.107 0.69-0.19 1.257-0.088 0.564-0.232 1.524-0.324 2.133-0.091 0.606-0.248 1.619-0.343 2.248s-0.183 1.211-0.194 1.295c-0.015 0.084-0.015 0.145-0.008 0.133 0.011-0.011 0.556-2.45 1.215-5.417 0.659-2.971 1.204-5.402 1.215-5.402s0.091 0.339 0.183 0.754c0.091 0.411 0.202 0.895 0.24 1.074 0.042 0.179 0.51 2.278 1.044 4.667 0.53 2.389 0.968 4.32 0.968 4.293 0.004-0.030-0.030-0.27-0.072-0.533-0.065-0.396-0.808-5.276-1.2-7.893-0.053-0.347-0.114-0.739-0.137-0.876-0.145-0.914-0.244-1.638-0.229-1.638 0.015 0.004 1.41 2.084 3.105 4.629 1.699 2.545 3.093 4.629 3.101 4.629s-0.027-0.072-0.080-0.16c-0.050-0.091-0.587-1.021-1.189-2.069s-1.17-2.034-1.257-2.19c-0.088-0.156-0.29-0.51-0.446-0.781-0.156-0.274-0.796-1.387-1.421-2.476s-1.143-1.996-1.154-2.015c-0.027-0.046 0.023-0.015 0.469 0.301 0.21 0.149 0.503 0.354 0.648 0.457 0.149 0.103 0.61 0.427 1.029 0.724 0.762 0.537 1.539 1.086 1.829 1.28 0.175 0.122 1.589 1.12 1.962 1.383 0.137 0.099 0.678 0.48 1.2 0.846 0.526 0.366 1.021 0.716 1.105 0.777 0.385 0.282 0.827 0.564 0.686 0.442-0.152-0.13-2.613-2.13-3.924-3.185-0.377-0.301-1.15-0.93-1.718-1.39-0.571-0.461-1.425-1.154-1.901-1.535-0.472-0.385-0.853-0.709-0.846-0.716 0.015-0.019 0.933 0.206 7.55 1.851 1.76 0.434 3.204 0.789 3.211 0.785 0.004-0.008-0.27-0.103-0.61-0.21-0.343-0.11-1.048-0.339-1.573-0.507-0.522-0.168-1.166-0.373-1.429-0.457s-0.792-0.255-1.181-0.381c-0.667-0.213-1.505-0.484-2.4-0.773-0.221-0.069-0.69-0.221-1.048-0.335-0.354-0.118-1.032-0.335-1.505-0.488-0.472-0.149-0.838-0.278-0.819-0.286 0.023-0.008 0.853-0.118 1.848-0.244s2.617-0.331 3.6-0.457c0.987-0.126 2.644-0.335 3.688-0.465 1.040-0.133 1.878-0.244 1.859-0.251-0.030-0.011-3.768 0.202-5.242 0.297-0.335 0.023-1.364 0.084-2.286 0.133-0.922 0.053-2.095 0.122-2.606 0.152-0.51 0.034-0.937 0.050-0.945 0.042s0.152-0.103 0.358-0.213c0.206-0.11 0.682-0.37 1.059-0.571 0.93-0.507 4.754-2.571 5.181-2.8 0.19-0.103 0.411-0.221 0.495-0.267 0.282-0.156 1.901-1.032 2.248-1.219 0.438-0.232 0.503-0.29 0.133-0.122-0.156 0.072-0.971 0.442-1.81 0.823-0.838 0.385-1.669 0.762-1.84 0.846-0.175 0.080-0.324 0.149-0.331 0.149s-0.175 0.076-0.37 0.168c-0.194 0.091-0.629 0.29-0.964 0.442s-0.815 0.37-1.067 0.484c-0.251 0.118-0.85 0.392-1.333 0.61-0.48 0.221-1.006 0.461-1.162 0.533-0.377 0.179-0.952 0.43-0.975 0.43-0.008 0 0.027-0.046 0.076-0.107 0.050-0.057 0.316-0.37 0.59-0.693 0.278-0.324 0.621-0.728 0.766-0.895 0.141-0.168 0.575-0.674 0.956-1.128 1.829-2.145 3.23-3.794 4.164-4.884 0.339-0.396 0.617-0.735 0.625-0.75 0.008-0.019-0.225 0.21-0.514 0.507s-0.861 0.884-1.272 1.303c-0.408 0.419-1.086 1.112-1.505 1.543-0.861 0.884-2.004 2.053-3.124 3.2-0.419 0.43-0.888 0.914-1.044 1.074-0.152 0.164-0.286 0.29-0.293 0.282s0.099-0.335 0.236-0.731c0.141-0.396 0.4-1.139 0.579-1.653 0.362-1.048 0.792-2.274 0.983-2.819 0.126-0.347 0.179-0.507 0.59-1.695 0.103-0.293 0.29-0.834 0.419-1.2 0.499-1.413 0.8-2.297 0.789-2.309-0.008-0.011-0.815 1.867-1.95 4.537-0.461 1.082-0.621 1.463-0.8 1.867-0.030 0.061-0.198 0.465-0.381 0.895-0.309 0.731-0.606 1.432-0.724 1.695-0.027 0.061-0.13 0.301-0.225 0.533-0.099 0.229-0.198 0.461-0.225 0.514l-0.042 0.095-0.011-0.095c-0.008-0.053-0.053-1.356-0.107-2.895-0.229-6.861-0.263-7.886-0.286-7.886-0.011 0-0.061 1.177-0.107 2.617zM17.737 14.187c0.636 0.114 1.162 0.59 1.345 1.219 0.076 0.255 0.084 0.347 0.065 0.625-0.038 0.45-0.255 0.891-0.587 1.177-0.872 0.762-2.187 0.495-2.705-0.541-0.133-0.267-0.156-0.354-0.179-0.648-0.019-0.301-0.011-0.381 0.069-0.636 0.122-0.385 0.385-0.743 0.67-0.918 0.328-0.202 0.373-0.221 0.644-0.274 0.335-0.065 0.32-0.065 0.678-0.004z"></path>
</symbol>
<symbol id="icon-circle-up" viewBox="0 0 32 32">
<path d="M0 16c0 8.837 7.163 16 16 16s16-7.163 16-16-7.163-16-16-16-16 7.163-16 16zM29 16c0 7.18-5.82 13-13 13s-13-5.82-13-13 5.82-13 13-13 13 5.82 13 13z"></path>
<path d="M22.086 20.914l2.829-2.829-8.914-8.914-8.914 8.914 2.828 2.828 6.086-6.086z"></path>
</symbol>
<symbol id="icon-icon-quote" viewBox="0 0 32 32">
<path fill="#d0cece" style="fill: var(--color1, #d0cece)" d="M0 0h32v32h-32v-32z"></path>
<path fill="#f4f4f4" style="fill: var(--color2, #f4f4f4)" d="M-64-622.4h600v3305.6h-600v-3305.6z"></path>
<path fill="#fff" style="fill: var(--color3, #fff)" d="M0-32h472c17.673 0 32 14.327 32 32v126.4c0 17.673-14.327 32-32 32h-472c-17.673 0-32-14.327-32-32v-126.4c0-17.673 14.327-32 32-32z"></path>
<path fill="#242424" style="fill: var(--color4, #242424)" d="M7.36 9.143h-1.92c-0.532 0-0.96 0.459-0.96 1.029v4.457h-0.96c-0.176 0-0.32 0.154-0.32 0.343v2.057c0 0.188 0.144 0.343 0.32 0.343h0.96v4.457c0 0.57 0.428 1.028 0.96 1.028h1.92c0.532 0 0.96-0.459 0.96-1.028v-11.657c0-0.57-0.428-1.029-0.96-1.029zM28.48 14.629h-0.96v-4.457c0-0.57-0.428-1.029-0.96-1.029h-1.92c-0.532 0-0.96 0.459-0.96 1.029v11.657c0 0.57 0.428 1.028 0.96 1.028h1.92c0.532 0 0.96-0.459 0.96-1.028v-4.457h0.96c0.176 0 0.32-0.154 0.32-0.343v-2.057c0-0.189-0.144-0.343-0.32-0.343zM21.44 6.4h-1.92c-0.532 0-0.96 0.459-0.96 1.029v7.2h-5.12v-7.2c0-0.57-0.428-1.029-0.96-1.029h-1.92c-0.532 0-0.96 0.459-0.96 1.029v17.143c0 0.57 0.428 1.029 0.96 1.029h1.92c0.532 0 0.96-0.459 0.96-1.029v-7.2h5.12v7.2c0 0.57 0.428 1.029 0.96 1.029h1.92c0.532 0 0.96-0.459 0.96-1.029v-17.143c0-0.57-0.428-1.029-0.96-1.029z"></path>
</symbol>

</defs>
</svg>
