<svg aria-hidden="true" style="position: absolute; width: 0; height: 0; overflow: hidden;" version="1.1" xmlns="http://www.w3.org/2000/svg" xmlns:xlink="http://www.w3.org/1999/xlink">
<defs>
<symbol id="icon-running-stick" viewBox="0 0 32 32">
<path d="M29.648 9.451c-0.219-0.26-0.545-0.424-0.909-0.424-0.29 0-0.556 0.104-0.762 0.277l0.002-0.002-3.28 2.757-1.51-3.739c-0.056-0.14-0.134-0.261-0.229-0.364l0.001 0.001c-0.321-0.716-0.875-1.281-1.563-1.608l-0.019-0.008c-0.32-0.146-0.651-0.224-0.982-0.262-0.072-0.038-0.139-0.088-0.222-0.114l-5.776-1.61c-0.093-0.026-0.199-0.041-0.31-0.041-0.223 0-0.432 0.062-0.611 0.169l0.005-0.003c-0.33 0.108-0.59 0.352-0.717 0.664l-0.003 0.008-2.174 5.592c-0.050 0.127-0.079 0.273-0.079 0.427 0 0.501 0.31 0.929 0.748 1.103l0.008 0.003c0.126 0.050 0.272 0.079 0.425 0.079 0.5 0 0.928-0.31 1.103-0.748l0.003-0.008 1.837-4.723 2.63 0.731c-0.064 0.104-0.133 0.202-0.186 0.312l-3.371 7.312c-0.048 0.107-0.075 0.216-0.11 0.326l-4.098 6.87-6.859 2.294c-0.42 0.323-0.687 0.826-0.687 1.391 0 0.968 0.784 1.752 1.752 1.752 0.381 0 0.733-0.122 1.021-0.328l-0.005 0.004 7.019-2.416c0.216-0.157 0.371-0.362 0.49-0.581 0.088-0.094 0.189-0.168 0.256-0.285l2.443-4.096 4.336 3.696-4.64 5.229c-0.273 0.307-0.439 0.714-0.439 1.16 0 0.967 0.784 1.751 1.751 1.751 0.521 0 0.99-0.228 1.31-0.589l0.002-0.002 5.79-6.523c0.179-0.202 0.288-0.432 0.36-0.675 0.043-0.133 0.043-0.269 0.053-0.406 0-0.069 0.027-0.131 0.021-0.195-0.009-0.509-0.239-0.963-0.598-1.272l-0.002-0.002-3.992-3.403c0.288-0.274 0.533-0.6 0.709-0.982l2.586-5.6 0.829 2.208c0.031 0.211 0.116 0.398 0.242 0.551l-0.002-0.002c0.121 0.138 0.273 0.247 0.445 0.314l0.008 0.003c0.018 0.008 0.038 0.010 0.059 0.016 0.096 0.040 0.208 0.069 0.325 0.080l0.005 0c0.024 0.002 0.052 0.003 0.081 0.003 0.116 0 0.227-0.017 0.332-0.050l-0.008 0.002h0.005c0.037-0.010 0.074-0.003 0.11-0.019 0.186-0.076 0.343-0.192 0.464-0.337l0.002-0.002 4.71-3.997c0.501-0.422 0.288-1.168-0.133-1.667zM23.69 6.602c1.823 0 3.301-1.478 3.301-3.301s-1.478-3.301-3.301-3.301v0c-1.823 0-3.301 1.478-3.301 3.301s1.478 3.301 3.301 3.301v0z"></path>
</symbol>
<symbol id="icon-commas" viewBox="0 0 32 32">
<path d="M8.2 17.468c1.547-0.612 2.787-0.452 3.72 0.481s1.211 2.421 0.831 4.463c-0.291 1.517-0.933 2.684-1.924 3.5-0.963 0.787-2.087 1.181-3.369 1.181-1.751 0-2.96-0.671-3.631-2.013-0.672-1.369-0.803-3.207-0.395-5.512 0.233-1.253 0.613-2.523 1.137-3.805 0.525-1.284 1.227-2.596 2.1-3.937 0.876-1.343 2.013-2.509 3.413-3.5 1.309-0.943 2.874-1.62 4.57-1.916l0.067-0.010-0.437 4.637c-1.429 0.292-2.699 1.035-3.807 2.231-1.108 1.167-1.867 2.567-2.275 4.2zM21.369 17.468c1.547-0.612 2.787-0.452 3.72 0.481s1.209 2.421 0.831 4.463c-0.292 1.517-0.933 2.684-1.925 3.5-0.963 0.787-2.085 1.181-3.368 1.181-1.751 0-2.96-0.671-3.632-2.013-0.671-1.369-0.801-3.207-0.393-5.512 0.233-1.253 0.613-2.523 1.137-3.805 0.525-1.284 1.225-2.596 2.1-3.937 0.875-1.343 2.013-2.509 3.413-3.5 1.309-0.943 2.873-1.619 4.567-1.916l0.067-0.010-0.437 4.637c-1.429 0.292-2.697 1.035-3.805 2.231-1.109 1.167-1.867 2.567-2.276 4.2z"></path>
</symbol>
<symbol id="icon-heart" viewBox="0 0 32 32">
<path stroke-linejoin="round" stroke-linecap="round" stroke-miterlimit="4" stroke-width="2.4" d="M27.787 6.147c-1.327-1.328-3.161-2.149-5.186-2.149s-3.859 0.821-5.186 2.149l-0 0-1.414 1.413-1.413-1.413c-1.327-1.327-3.161-2.148-5.186-2.148-4.051 0-7.335 3.284-7.335 7.335 0 2.025 0.821 3.859 2.148 5.186v0l11.786 11.787 11.787-11.787c1.327-1.327 2.148-3.161 2.148-5.186s-0.821-3.859-2.148-5.186v0z"></path>
</symbol>
<symbol id="icon-trash" viewBox="0 0 32 32">
<path stroke-linejoin="round" stroke-linecap="round" stroke-miterlimit="4" stroke-width="2.4" d="M21.333 8v-1.067c0-1.493 0-2.24-0.29-2.81-0.261-0.505-0.662-0.906-1.152-1.159l-0.015-0.007c-0.57-0.29-1.317-0.29-2.81-0.29h-2.134c-1.493 0-2.24 0-2.81 0.29-0.502 0.256-0.91 0.664-1.166 1.166-0.29 0.57-0.29 1.317-0.29 2.81v1.067M13.333 15.333v6.667M18.667 15.333v6.667M4 8h24M25.333 8v14.933c0 2.24 0 3.36-0.435 4.216-0.391 0.756-0.992 1.358-1.727 1.738l-0.022 0.011c-0.854 0.435-1.976 0.435-4.216 0.435h-5.866c-2.24 0-3.36 0-4.216-0.435-0.756-0.391-1.358-0.992-1.738-1.727l-0.011-0.022c-0.435-0.856-0.435-1.976-0.435-4.216v-14.933"></path>
</symbol>
<symbol id="icon-search" viewBox="0 0 32 32">
<path stroke-linejoin="round" stroke-linecap="round" stroke-miterlimit="4" stroke-width="2.6667" d="M14.667 25.333c5.891 0 10.667-4.776 10.667-10.667s-4.776-10.667-10.667-10.667v0c-5.891 0-10.667 4.776-10.667 10.667s4.776 10.667 10.667 10.667v0zM28 28l-5.801-5.799"></path>
</symbol>
<symbol id="icon-close" viewBox="0 0 32 32">
<path stroke-linejoin="round" stroke-linecap="round" stroke-miterlimit="4" stroke-width="2.6667" d="M22.667 9.333l-13.333 13.333M9.333 9.333l13.333 13.333"></path>
</symbol>
<symbol id="icon-arrow" viewBox="0 0 32 32">
<path stroke-linejoin="miter" stroke-linecap="butt" stroke-miterlimit="4" stroke-width="0.48" d="M17.037 7.986v16.338h-1.741v-16.336l-8.168 8.168-1.23-1.229 10.269-10.267 10.266 10.267-1.229 1.229-8.168-8.17z"></path>
</symbol>
<symbol id="icon-star" viewBox="0 0 32 32">
<path d="M13.826 3.262c0.686-2.105 3.664-2.105 4.347 0l1.931 5.943c0.306 0.925 1.163 1.581 2.174 1.582h6.251c2.215 0 3.134 2.834 1.344 4.135l-5.058 3.673c-0.573 0.42-0.942 1.092-0.942 1.849 0 0.253 0.041 0.496 0.117 0.723l-0.005-0.016 1.931 5.945c0.686 2.105-1.726 3.858-3.518 2.555l-5.056-3.673c-0.372-0.273-0.839-0.437-1.344-0.437s-0.972 0.164-1.35 0.441l0.006-0.004-5.056 3.673c-1.792 1.303-4.201-0.45-3.518-2.555l1.931-5.943c0.071-0.212 0.113-0.455 0.113-0.708 0-0.757-0.368-1.429-0.936-1.845l-0.006-0.004-5.058-3.673c-1.79-1.303-0.869-4.137 1.344-4.137h6.251c1.008-0.001 1.864-0.654 2.167-1.561l0.005-0.016 1.934-5.943z"></path>
</symbol>
<symbol id="icon-youtube" viewBox="0 0 32 32">
<path d="M24.24 6c-1.36-0.080-4.16-0.16-8.4-0.16h-0.56c-4.080 0-6.8 0.080-8.16 0.24-1.84 0.16-3.12 0.64-3.84 1.28-0.64 0.56-1.12 1.6-1.28 2.96-0.080 0.88-0.16 2.72-0.16 5.52v0.4c0 2.64 0.080 4.48 0.24 5.36 0.24 1.28 0.64 2.24 1.44 2.8 0.8 0.64 2.16 1.040 4.080 1.2 1.36 0.080 4.16 0.16 8.4 0.16h0.56c4.080 0 6.8-0.080 8.16-0.24 1.84-0.16 3.12-0.64 3.84-1.28 0.64-0.56 1.12-1.6 1.28-2.96 0.080-0.88 0.16-2.72 0.16-5.52v-0.4c0-2.64-0.080-4.48-0.24-5.36-0.24-1.28-0.64-2.24-1.44-2.8-0.8-0.64-2.16-1.040-4.080-1.2zM21.12 15.84l-8.8 5.28v-10.56l8.8 5.28z"></path>
</symbol>
<symbol id="icon-instagram" viewBox="0 0 32 32">
<path d="M28.718 10.757c-0.016-1.134-0.233-2.213-0.617-3.208l0.021 0.063c-0.682-1.722-2.021-3.059-3.7-3.722l-0.044-0.015c-0.921-0.356-1.985-0.573-3.097-0.596l-0.010-0c-1.367-0.061-1.801-0.078-5.271-0.078-3.472 0-3.917 0-5.274 0.078-1.063 0.023-2.113 0.223-3.106 0.597-1.724 0.678-3.064 2.015-3.73 3.693l-0.015 0.044c-0.357 0.918-0.574 1.981-0.596 3.091l-0 0.009c-0.061 1.367-0.080 1.8-0.080 5.265 0 3.466 0 3.909 0.080 5.265 0.023 1.063 0.223 2.11 0.597 3.104 0.682 1.721 2.021 3.058 3.7 3.721l0.044 0.015c0.917 0.37 1.979 0.601 3.091 0.638l0.016 0c1.369 0.061 1.802 0.080 5.274 0.080 3.471 0 3.917 0 5.274-0.080 1.122-0.023 2.187-0.239 3.172-0.616l-0.064 0.022c1.722-0.68 3.061-2.016 3.727-3.693l0.016-0.044c0.374-0.994 0.574-2.041 0.595-3.104 0.062-1.366 0.080-1.799 0.080-5.266-0.003-3.465-0.003-3.905-0.082-5.263zM15.989 22.531c-0.002 0-0.004 0-0.007 0-3.624 0-6.563-2.937-6.565-6.561v-0c0.003-3.624 2.941-6.561 6.566-6.561 0.002 0 0.004 0 0.006 0h-0c3.629 0 6.571 2.937 6.571 6.561-0.004 3.624-2.942 6.56-6.567 6.56-0.002 0-0.003 0-0.005 0h0zM22.823 10.696c-0.845 0-1.53-0.685-1.53-1.53s0.685-1.53 1.53-1.53v0c0.012-0 0.027-0.001 0.042-0.001 0.845 0 1.53 0.685 1.53 1.53s-0.685 1.53-1.53 1.53c-0.015 0-0.029-0-0.044-0.001l0.002 0z"></path>
<path d="M15.992 19.976c2.211 0 4.004-1.793 4.004-4.004s-1.793-4.004-4.004-4.004v0c-2.211 0-4.004 1.793-4.004 4.004s1.793 4.004 4.004 4.004v0z"></path>
</symbol>
<symbol id="icon-facebook" viewBox="0 0 32 32">
<path d="M19.52 4.64h0.96v3.6h-1.2c-0.48 0-0.96 0-1.2 0.24s-0.24 0.48-0.24 1.040v1.28h2.64v3.040h-2.64v13.2h-4.080v-13.28h-2.16v-3.040h2.16v-1.040c0-1.76 0.24-3.040 0.72-3.6 0.72-1.040 2.16-1.52 4.32-1.52 0.24 0.080 0.48 0.080 0.72 0.080z"></path>
</symbol>
<symbol id="burger" viewBox="0 0 32 32">
<path stroke-linejoin="round" stroke-linecap="round" stroke-miterlimit="4" stroke-width="2" d="M28 13.333h-24"></path>
<path stroke-linejoin="round" stroke-linecap="round" stroke-miterlimit="4" stroke-width="2" d="M28 8h-24"></path>
<path stroke-linejoin="round" stroke-linecap="round" stroke-miterlimit="4" stroke-width="2" d="M28 18.667h-24"></path>
<path stroke-linejoin="round" stroke-linecap="round" stroke-miterlimit="4" stroke-width="2" d="M28 24h-24"></path>
</symbol>
Diana:
<symbol id="big-star" viewBox="0 0 38 32">
<path d="M17.303 5.512c-0.050 1.444-0.13 3.821-0.183 5.288-0.050 1.467-0.091 2.735-0.091 2.815 0 0.084-0.011 0.137-0.023 0.126-0.027-0.023-0.164-0.343-0.606-1.379-0.133-0.316-0.45-1.059-0.705-1.657-0.259-0.598-0.518-1.208-0.579-1.352-0.065-0.149-0.61-1.425-1.215-2.842-0.602-1.417-1.128-2.651-1.162-2.743s-0.080-0.187-0.099-0.206c-0.019-0.023 0.072 0.263 0.198 0.629 0.13 0.366 0.316 0.907 0.419 1.2 0.099 0.293 0.297 0.857 0.438 1.257 0.491 1.394 0.789 2.248 0.819 2.343 0.015 0.053 0.156 0.446 0.305 0.876 0.152 0.43 0.347 0.994 0.438 1.257 0.263 0.762 0.96 2.754 0.99 2.827 0.053 0.133-0.050 0.065-0.29-0.19-0.225-0.24-2.091-2.156-3.882-3.989-0.43-0.438-1.116-1.143-1.524-1.562-1.242-1.269-2.076-2.103-1.939-1.935 0.072 0.084 0.423 0.499 0.777 0.914 0.358 0.419 0.724 0.85 0.819 0.964 0.095 0.11 0.225 0.263 0.29 0.339s0.389 0.453 0.72 0.842c1.341 1.577 2.754 3.234 3.585 4.206 0.488 0.568 0.88 1.036 0.872 1.044-0.004 0.004-0.4-0.168-0.88-0.385-0.48-0.221-0.956-0.438-1.063-0.484-0.103-0.046-0.301-0.137-0.438-0.198-0.137-0.065-0.343-0.16-0.457-0.21-0.114-0.053-0.312-0.145-0.438-0.202s-0.4-0.183-0.61-0.278c-0.21-0.095-0.705-0.32-1.105-0.503-0.396-0.183-0.903-0.415-1.124-0.514s-1.12-0.51-2-0.914c-1.874-0.857-2-0.914-2-0.895 0 0.008 0.168 0.103 0.37 0.213 0.373 0.198 2.51 1.352 2.907 1.566 0.114 0.065 0.709 0.385 1.314 0.716 0.61 0.328 1.448 0.785 1.867 1.010s0.857 0.461 0.971 0.522c0.114 0.065 0.45 0.244 0.743 0.4 0.293 0.16 0.552 0.301 0.571 0.316 0.023 0.015 0.244 0.133 0.495 0.267 0.251 0.13 0.476 0.255 0.495 0.274 0.027 0.027-0.069 0.030-0.267 0.015-0.168-0.015-1.204-0.076-2.305-0.137-1.101-0.065-2.419-0.141-2.933-0.171-2.998-0.179-5.539-0.324-5.57-0.316-0.019 0.008 0.545 0.084 1.253 0.175 1.33 0.164 5.558 0.701 8.202 1.036 0.827 0.107 1.524 0.198 1.543 0.206 0.023 0.008-0.423 0.16-0.99 0.343-0.564 0.183-1.284 0.415-1.6 0.518-0.312 0.099-0.983 0.316-1.486 0.476s-0.983 0.312-1.067 0.343c-0.156 0.053-1.794 0.579-2.381 0.766-0.179 0.053-0.469 0.149-0.648 0.206-0.179 0.061-0.762 0.248-1.295 0.419s-1.006 0.324-1.048 0.347l-0.076 0.034 0.076-0.019c0.042-0.008 2.084-0.514 4.533-1.124 5.15-1.28 6.137-1.524 6.194-1.524 0.023 0-0.114 0.126-0.301 0.274-0.19 0.152-0.503 0.408-0.697 0.568-0.198 0.16-0.853 0.693-1.463 1.185-1.962 1.585-2.59 2.095-2.667 2.16-0.042 0.034-0.51 0.411-1.044 0.842-0.857 0.69-1.547 1.253-1.775 1.444-0.042 0.034-0.183 0.145-0.312 0.244-0.21 0.16-0.309 0.255-0.27 0.255 0.008 0 0.225-0.149 0.48-0.335 0.259-0.183 0.579-0.408 0.716-0.503s0.377-0.267 0.541-0.385c0.16-0.114 0.43-0.305 0.598-0.419 0.168-0.118 0.743-0.518 1.276-0.895s1.082-0.762 1.219-0.857c0.59-0.415 1.977-1.394 2.629-1.848 0.389-0.274 0.8-0.564 0.914-0.644 0.114-0.084 0.301-0.213 0.415-0.293s0.213-0.137 0.225-0.13c0.008 0.011-0.122 0.255-0.29 0.545s-0.811 1.417-1.436 2.507c-0.625 1.090-1.166 2.030-1.2 2.095-0.038 0.061-0.434 0.758-0.884 1.543s-0.907 1.581-1.017 1.768c-0.107 0.187-0.194 0.343-0.194 0.347 0 0.008-0.065 0.122-0.145 0.251-0.232 0.389-0.362 0.629-0.324 0.587 0.023-0.023 1.398-2.076 3.059-4.571s3.048-4.564 3.086-4.602c0.061-0.069 0.065-0.061 0.034 0.133-0.019 0.11-0.145 0.937-0.282 1.84-0.137 0.899-0.263 1.741-0.286 1.867-0.019 0.126-0.107 0.69-0.19 1.257-0.088 0.564-0.232 1.524-0.324 2.133-0.091 0.606-0.248 1.619-0.343 2.248s-0.183 1.211-0.194 1.295c-0.015 0.084-0.015 0.145-0.008 0.133 0.011-0.011 0.556-2.45 1.215-5.417 0.659-2.971 1.204-5.402 1.215-5.402s0.091 0.339 0.183 0.754c0.091 0.411 0.202 0.895 0.24 1.074 0.042 0.179 0.51 2.278 1.044 4.667 0.53 2.389 0.968 4.32 0.968 4.293 0.004-0.030-0.030-0.27-0.072-0.533-0.065-0.396-0.808-5.276-1.2-7.893-0.053-0.347-0.114-0.739-0.137-0.876-0.145-0.914-0.244-1.638-0.229-1.638 0.015 0.004 1.41 2.084 3.105 4.629 1.699 2.545 3.093 4.629 3.101 4.629s-0.027-0.072-0.080-0.16c-0.050-0.091-0.587-1.021-1.189-2.069s-1.17-2.034-1.257-2.19c-0.088-0.156-0.29-0.51-0.446-0.781-0.156-0.274-0.796-1.387-1.421-2.476s-1.143-1.996-1.154-2.015c-0.027-0.046 0.023-0.015 0.469 0.301 0.21 0.149 0.503 0.354 0.648 0.457 0.149 0.103 0.61 0.427 1.029 0.724 0.762 0.537 1.539 1.086 1.829 1.28 0.175 0.122 1.589 1.12 1.962 1.383 0.137 0.099 0.678 0.48 1.2 0.846 0.526 0.366 1.021 0.716 1.105 0.777 0.385 0.282 0.827 0.564 0.686 0.442-0.152-0.13-2.613-2.13-3.924-3.185-0.377-0.301-1.15-0.93-1.718-1.39-0.571-0.461-1.425-1.154-1.901-1.535-0.472-0.385-0.853-0.709-0.846-0.716 0.015-0.019 0.933 0.206 7.55 1.851 1.76 0.434 3.204 0.789 3.211 0.785 0.004-0.008-0.27-0.103-0.61-0.21-0.343-0.11-1.048-0.339-1.573-0.507-0.522-0.168-1.166-0.373-1.429-0.457s-0.792-0.255-1.181-0.381c-0.667-0.213-1.505-0.484-2.4-0.773-0.221-0.069-0.69-0.221-1.048-0.335-0.354-0.118-1.032-0.335-1.505-0.488-0.472-0.149-0.838-0.278-0.819-0.286 0.023-0.008 0.853-0.118 1.848-0.244s2.617-0.331 3.6-0.457c0.987-0.126 2.644-0.335 3.688-0.465 1.040-0.133 1.878-0.244 1.859-0.251-0.030-0.011-3.768 0.202-5.242 0.297-0.335 0.023-1.364 0.084-2.286 0.133-0.922 0.053-2.095 0.122-2.606 0.152-0.51 0.034-0.937 0.050-0.945 0.042s0.152-0.103 0.358-0.213c0.206-0.11 0.682-0.37 1.059-0.571 0.93-0.507 4.754-2.571 5.181-2.8 0.19-0.103 0.411-0.221 0.495-0.267 0.282-0.156 1.901-1.032 2.248-1.219 0.438-0.232 0.503-0.29 0.133-0.122-0.156 0.072-0.971 0.442-1.81 0.823-0.838 0.385-1.669 0.762-1.84 0.846-0.175 0.080-0.324 0.149-0.331 0.149s-0.175 0.076-0.37 0.168c-0.194 0.091-0.629 0.29-0.964 0.442s-0.815 0.37-1.067 0.484c-0.251 0.118-0.85 0.392-1.333 0.61-0.48 0.221-1.006 0.461-1.162 0.533-0.377 0.179-0.952 0.43-0.975 0.43-0.008 0 0.027-0.046 0.076-0.107 0.050-0.057 0.316-0.37 0.59-0.693 0.278-0.324 0.621-0.728 0.766-0.895 0.141-0.168 0.575-0.674 0.956-1.128 1.829-2.145 3.23-3.794 4.164-4.884 0.339-0.396 0.617-0.735 0.625-0.75 0.008-0.019-0.225 0.21-0.514 0.507s-0.861 0.884-1.272 1.303c-0.408 0.419-1.086 1.112-1.505 1.543-0.861 0.884-2.004 2.053-3.124 3.2-0.419 0.43-0.888 0.914-1.044 1.074-0.152 0.164-0.286 0.29-0.293 0.282s0.099-0.335 0.236-0.731c0.141-0.396 0.4-1.139 0.579-1.653 0.362-1.048 0.792-2.274 0.983-2.819 0.126-0.347 0.179-0.507 0.59-1.695 0.103-0.293 0.29-0.834 0.419-1.2 0.499-1.413 0.8-2.297 0.789-2.309-0.008-0.011-0.815 1.867-1.95 4.537-0.461 1.082-0.621 1.463-0.8 1.867-0.030 0.061-0.198 0.465-0.381 0.895-0.309 0.731-0.606 1.432-0.724 1.695-0.027 0.061-0.13 0.301-0.225 0.533-0.099 0.229-0.198 0.461-0.225 0.514l-0.042 0.095-0.011-0.095c-0.008-0.053-0.053-1.356-0.107-2.895-0.229-6.861-0.263-7.886-0.286-7.886-0.011 0-0.061 1.177-0.107 2.617zM17.737 14.187c0.636 0.114 1.162 0.59 1.345 1.219 0.076 0.255 0.084 0.347 0.065 0.625-0.038 0.45-0.255 0.891-0.587 1.177-0.872 0.762-2.187 0.495-2.705-0.541-0.133-0.267-0.156-0.354-0.179-0.648-0.019-0.301-0.011-0.381 0.069-0.636 0.122-0.385 0.385-0.743 0.67-0.918 0.328-0.202 0.373-0.221 0.644-0.274 0.335-0.065 0.32-0.065 0.678-0.004z"></path>
</symbol>
</defs>
</svg>
